<?xml version="1.0" encoding="UTF-8"?>
<!DOCTYPE svg PUBLIC "-//W3C//DTD SVG 1.1//EN" "http://www.w3.org/Graphics/SVG/1.1/DTD/svg11.dtd">
<svg xmlns="http://www.w3.org/2000/svg" version="1.1" width="905px" height="1376px" style="shape-rendering:geometricPrecision; text-rendering:geometricPrecision; image-rendering:optimizeQuality; fill-rule:evenodd; clip-rule:evenodd" xmlns:xlink="http://www.w3.org/1999/xlink">
<g><path style="opacity:0.98" fill="#fefffe" d="M 222.5,221.5 C 375.5,221.5 528.5,221.5 681.5,221.5C 681.5,374.833 681.5,528.167 681.5,681.5C 528.5,681.5 375.5,681.5 222.5,681.5C 222.5,528.167 222.5,374.833 222.5,221.5 Z M 445.5,310.5 C 501.356,310.993 541.19,336.326 565,386.5C 585.838,449.344 569.338,499.844 515.5,538C 472.3,561.556 429.3,561.223 386.5,537C 342.51,506.166 324.343,463.999 332,410.5C 346.94,351.054 384.773,317.721 445.5,310.5 Z M 545.5,323.5 C 566.126,328.777 577.793,341.777 580.5,362.5C 574.551,358.054 569.051,353.054 564,347.5C 558.001,339.339 551.834,331.339 545.5,323.5 Z M 321.5,364.5 C 324.703,343.137 336.703,329.971 357.5,325C 349.902,333.262 343.068,342.095 337,351.5C 331.96,356.044 326.794,360.378 321.5,364.5 Z M 468.5,326.5 C 472.027,326.396 475.027,327.563 477.5,330C 475.163,331.951 472.663,332.451 470,331.5C 465.825,333.587 461.991,333.421 458.5,331C 462.042,329.725 465.375,328.225 468.5,326.5 Z M 578.5,339.5 C 587.549,343.386 593.716,350.053 597,359.5C 598.037,364.295 598.87,369.129 599.5,374C 598.751,381.476 598.251,388.976 598,396.5C 595.618,393.573 593.118,390.739 590.5,388C 582.083,382.254 574.25,375.754 567,368.5C 563.52,363.553 561.187,358.219 560,352.5C 566.078,359.629 573.245,365.462 581.5,370C 587.159,374.501 591.493,380.001 594.5,386.5C 594.833,386.167 595.167,385.833 595.5,385.5C 590.739,373.127 586.906,360.46 584,347.5C 582.404,344.631 580.57,341.964 578.5,339.5 Z M 507.5,341.5 C 508.397,342.598 509.23,342.598 510,341.5C 512.261,342.772 512.761,344.438 511.5,346.5C 509.389,345.395 508.055,343.729 507.5,341.5 Z M 322.5,342.5 C 321.013,345.473 319.513,348.473 318,351.5C 315.131,363.972 312.131,376.305 309,388.5C 314.833,377.333 323.333,368.833 334.5,363C 337.712,359.382 340.712,356.716 343.5,355C 338.496,369.007 329.496,379.673 316.5,387C 311.917,390.912 308.083,395.412 305,400.5C 305.156,393.058 304.989,385.558 304.5,378C 303.323,364.182 307.99,352.849 318.5,344C 319.745,343.209 321.078,342.709 322.5,342.5 Z M 575.5,384.5 C 582.586,390.477 589.42,396.811 596,403.5C 600.3,409.898 603.133,416.898 604.5,424.5C 604.829,405.399 604.829,386.233 604.5,367C 604.667,366.5 604.833,366 605,365.5C 614.663,379.469 617.663,394.802 614,411.5C 610.399,420.637 607.399,429.97 605,439.5C 603.729,435.021 602.062,430.688 600,426.5C 594.245,417.99 588.245,409.657 582,401.5C 578.743,396.227 576.577,390.561 575.5,384.5 Z M 297.5,367.5 C 298.903,386.987 299.569,406.654 299.5,426.5C 300.821,418.372 303.987,411.039 309,404.5C 315.37,397.6 321.87,391.6 328.5,386.5C 323.654,400.531 316.487,413.198 307,424.5C 303.968,429.23 301.468,434.23 299.5,439.5C 296.963,431.723 294.13,424.057 291,416.5C 285.979,399.133 288.146,382.799 297.5,367.5 Z M 620.5,408.5 C 626.125,426.722 624.292,444.389 615,461.5C 609.333,468.833 603.667,476.167 598,483.5C 597.667,479.167 597.333,474.833 597,470.5C 593.799,459.896 590.799,449.229 588,438.5C 586.175,431.232 585.175,423.898 585,416.5C 588.6,423.757 592.6,430.757 597,437.5C 602.945,447.631 604.445,458.131 601.5,469C 601.833,469.833 602.167,470.667 602.5,471.5C 604.841,462.472 607.341,453.472 610,444.5C 616.447,433.33 619.947,421.33 620.5,408.5 Z M 282.5,411.5 C 283.991,423.471 287.824,434.804 294,445.5C 296.9,455.178 299.733,464.844 302.5,474.5C 302.833,473.833 303.167,473.167 303.5,472.5C 301.065,465.22 300.899,457.886 303,450.5C 307.928,439.258 313.261,428.258 319,417.5C 318.04,435.681 314.373,453.348 308,470.5C 307.667,475.833 307.333,481.167 307,486.5C 302.723,479.621 297.723,473.288 292,467.5C 281.05,450.238 277.883,431.571 282.5,411.5 Z M 573.5,524.5 C 575.617,519.37 577.117,514.036 578,508.5C 579.443,495.848 580.777,483.182 582,470.5C 582.865,465.375 584.198,460.375 586,455.5C 587.501,466.338 589.001,477.171 590.5,488C 590.176,496.303 587.843,503.97 583.5,511C 583.833,511.5 584.167,512 584.5,512.5C 589.194,506.306 593.694,499.972 598,493.5C 604.699,487.136 611.032,480.469 617,473.5C 619.861,469.112 622.194,464.446 624,459.5C 623.566,478.869 615.733,494.702 600.5,507C 591.784,513.353 582.784,519.186 573.5,524.5 Z M 331.5,526.5 C 317.882,519.102 305.382,510.102 294,499.5C 284.706,489.284 280.373,477.284 281,463.5C 282.556,468.28 284.889,472.613 288,476.5C 300.12,488.28 311.12,500.947 321,514.5C 319.68,510.166 318.013,505.833 316,501.5C 314.985,497.235 314.485,492.902 314.5,488.5C 315.285,478.405 316.785,468.405 319,458.5C 320.156,462.123 321.156,465.789 322,469.5C 323.727,483.495 325.393,497.495 327,511.5C 328.003,516.673 329.503,521.673 331.5,526.5 Z M 572.5,491.5 C 571.074,504.058 568.574,516.391 565,528.5C 560.93,535.24 556.096,541.407 550.5,547C 551.5,547.667 552.5,547.667 553.5,547C 557.88,542.952 562.546,539.285 567.5,536C 577.5,530.667 587.5,525.333 597.5,520C 602.002,516.33 606.335,512.497 610.5,508.5C 607.371,517.475 602.371,525.309 595.5,532C 580.08,545.314 562.08,552.481 541.5,553.5C 544.562,549.055 547.395,544.389 550,539.5C 554.02,526.437 559.02,513.77 565,501.5C 567.748,498.266 570.248,494.932 572.5,491.5 Z M 332.5,494.5 C 337.637,500.083 341.804,506.416 345,513.5C 348.55,524.817 352.883,535.817 358,546.5C 360.128,549.63 362.628,552.463 365.5,555C 351.427,553.583 337.761,550.25 324.5,545C 309.744,536.911 299.577,525.078 294,509.5C 297.167,514 301,517.833 305.5,521C 315.677,526.589 326.01,531.922 336.5,537C 341.014,540.091 345.347,543.425 349.5,547C 351.044,548.187 352.711,548.52 354.5,548C 345.815,540.994 339.982,532.161 337,521.5C 335.282,512.526 333.782,503.526 332.5,494.5 Z M 582.5,550.5 C 568.566,567.62 550.566,574.453 528.5,571C 517.532,568.508 506.532,566.175 495.5,564C 502.668,562.502 509.334,559.835 515.5,556C 526.017,545.983 536.683,536.149 547.5,526.5C 544.551,535.065 540.385,543.398 535,551.5C 528.82,556.506 521.987,560.34 514.5,563C 529.75,561.011 545.083,559.345 560.5,558C 568.337,556.777 575.67,554.277 582.5,550.5 Z M 356.5,527.5 C 366.562,535.055 375.895,543.555 384.5,553C 391.233,558.532 398.899,562.199 407.5,564C 393.609,568.888 379.276,572.054 364.5,573.5C 351.8,572.98 340.466,568.814 330.5,561C 327.223,558.234 324.557,555.067 322.5,551.5C 328.597,555.376 335.263,557.876 342.5,559C 358.914,560.341 375.247,562.008 391.5,564C 382.186,561.592 374.352,556.758 368,549.5C 363.886,542.271 360.053,534.937 356.5,527.5 Z M 554.5,577.5 C 543.578,587.75 530.578,591.917 515.5,590C 508.484,588.661 501.817,586.328 495.5,583C 489.167,578.667 482.833,574.333 476.5,570C 470.89,568.314 465.223,568.147 459.5,569.5C 473.611,576.548 486.277,585.548 497.5,596.5C 496.141,598.692 494.308,600.359 492,601.5C 482.047,591.207 471.213,582.04 459.5,574C 457.487,572.743 455.321,571.909 453,571.5C 437.44,578.467 424.44,588.8 414,602.5C 412.167,600.667 410.333,598.833 408.5,597C 419.575,585.63 432.242,576.463 446.5,569.5C 441.111,568.159 435.778,568.325 430.5,570C 422.833,575 415.167,580 407.5,585C 386.919,595.449 367.919,593.282 350.5,578.5C 360.608,582.206 370.942,583.04 381.5,581C 393.713,576.062 406.047,571.395 418.5,567C 429.889,563.566 441.222,563.733 452.5,567.5C 463.375,564.275 474.375,563.775 485.5,566C 497.266,570.049 508.933,574.382 520.5,579C 531.973,582.151 543.307,581.651 554.5,577.5 Z"/></g>
<g><path style="opacity:0.907" fill="#fefffe" d="M 454.5,315.5 C 484.396,317.29 510.396,328.123 532.5,348C 527.667,351.5 523.5,355.667 520,360.5C 517.833,358.17 516.166,355.503 515,352.5C 511.212,349.107 506.878,346.773 502,345.5C 500.105,345.615 498.438,346.282 497,347.5C 484.624,339.862 471.124,335.862 456.5,335.5C 456.649,334.448 456.483,333.448 456,332.5C 455.667,332.833 455.333,333.167 455,333.5C 454.501,327.509 454.334,321.509 454.5,315.5 Z M 468.5,326.5 C 465.375,328.225 462.042,329.725 458.5,331C 461.991,333.421 465.825,333.587 470,331.5C 472.663,332.451 475.163,331.951 477.5,330C 475.027,327.563 472.027,326.396 468.5,326.5 Z M 507.5,341.5 C 508.055,343.729 509.389,345.395 511.5,346.5C 512.761,344.438 512.261,342.772 510,341.5C 509.23,342.598 508.397,342.598 507.5,341.5 Z"/></g>
<g><path style="opacity:0.935" fill="#fefffe" d="M 438.5,316.5 C 441.898,316.18 445.232,316.513 448.5,317.5C 447.821,323.449 447.821,329.449 448.5,335.5C 423.909,336.636 402.743,345.636 385,362.5C 380.468,357.633 375.634,353.133 370.5,349C 389.712,330.894 412.379,320.06 438.5,316.5 Z"/></g>
<g><path style="opacity:0.903" fill="#fefffe" d="M 493.5,366.5 C 493.586,367.496 493.252,368.329 492.5,369C 494.616,370.171 495.282,371.671 494.5,373.5C 482.689,364.673 469.355,360.006 454.5,359.5C 454.17,353.132 454.504,346.798 455.5,340.5C 467.989,341.789 479.989,344.956 491.5,350C 493,351.5 494.5,353 496,354.5C 498.462,359.208 500.295,364.208 501.5,369.5C 504.865,366.563 507.365,367.23 509,371.5C 509.333,373.5 509.667,375.5 510,377.5C 514.639,382.417 520.139,386.25 526.5,389C 528.684,393.192 532.017,395.858 536.5,397C 537.46,398.419 538.293,399.919 539,401.5C 541.869,410.681 544.036,420.014 545.5,429.5C 539.202,430.496 532.868,430.83 526.5,430.5C 525.367,425.073 524.7,419.739 524.5,414.5C 522.576,418.017 520.909,421.684 519.5,425.5C 520.074,427.059 520.74,428.559 521.5,430C 518.854,430.497 516.187,430.664 513.5,430.5C 513.5,428.5 513.5,426.5 513.5,424.5C 514.822,424.67 515.989,424.337 517,423.5C 520.747,417.958 522.58,411.791 522.5,405C 521.998,401.911 520.331,399.744 517.5,398.5C 520.433,396.262 520.099,395.262 516.5,395.5C 516.33,394.178 516.663,393.011 517.5,392C 515.775,392.409 514.108,392.242 512.5,391.5C 509.443,387.618 506.61,383.618 504,379.5C 502.438,377.043 501.438,374.376 501,371.5C 498.213,370.195 495.713,368.528 493.5,366.5 Z"/></g>
<g><path style="opacity:0.931" fill="#fefffe" d="M 439.5,341.5 C 442.5,341.5 445.5,341.5 448.5,341.5C 448.5,347.5 448.5,353.5 448.5,359.5C 430.553,360.643 415.053,367.31 402,379.5C 397.5,375 393,370.5 388.5,366C 403.215,352.975 420.215,344.808 439.5,341.5 Z"/></g>
<g><path style="opacity:0.938" fill="#fefffe" d="M 535.5,351.5 C 556.312,372.807 567.646,398.474 569.5,428.5C 562.964,430.436 556.298,430.936 549.5,430C 549.019,404.744 539.686,383.244 521.5,365.5C 522.376,364.749 523.376,364.249 524.5,364C 528.003,359.665 531.67,355.499 535.5,351.5 Z"/></g>
<g><path style="opacity:0.942" fill="#fefffe" d="M 366.5,352.5 C 371.908,356.4 376.908,360.9 381.5,366C 364.594,384.064 355.928,405.397 355.5,430C 348.842,430.5 342.175,430.666 335.5,430.5C 336.019,409.76 341.519,390.427 352,372.5C 356.665,365.675 361.498,359.009 366.5,352.5 Z"/></g>
<g><path style="opacity:0.93" fill="#fefffe" d="M 447.5,364.5 C 448.49,370.645 448.823,376.978 448.5,383.5C 437.571,384.465 427.904,388.465 419.5,395.5C 414.95,391.448 410.616,387.281 406.5,383C 418.225,372.47 431.892,366.303 447.5,364.5 Z"/></g>
<g><path style="opacity:0.921" fill="#fefffe" d="M 454.5,364.5 C 471.156,365.996 485.823,372.163 498.5,383C 493.684,386.981 489.018,391.148 484.5,395.5C 475.858,388.181 465.858,384.181 454.5,383.5C 454.5,377.167 454.5,370.833 454.5,364.5 Z"/></g>
<g><path style="opacity:0.934" fill="#fefffe" d="M 384.5,369.5 C 389.298,373.797 393.965,378.297 398.5,383C 385.713,396.704 379.213,412.87 379,431.5C 372.555,430.851 366.055,430.184 359.5,429.5C 361.268,406.647 369.601,386.647 384.5,369.5 Z"/></g>
<g><path style="opacity:0.855" fill="#fefffe" d="M 500.5,386.5 C 502.017,386.511 503.184,387.177 504,388.5C 506,391.167 508,393.833 510,396.5C 510.429,398.669 509.929,400.669 508.5,402.5C 515.831,405.301 518.998,410.635 518,418.5C 517.125,421.215 515.292,422.548 512.5,422.5C 512.253,419.495 513.253,416.995 515.5,415C 513.756,413.659 511.923,412.492 510,411.5C 508.289,411.439 506.956,412.106 506,413.5C 505.083,409.836 503.25,406.67 500.5,404C 496.137,403.631 491.804,403.131 487.5,402.5C 487.773,405.183 486.773,406.683 484.5,407C 483.549,406.282 483.383,405.449 484,404.5C 490.097,398.909 495.597,392.909 500.5,386.5 Z"/></g>
<g><path style="opacity:0.899" fill="#fefffe" d="M 400.5,387.5 C 401.552,387.351 402.552,387.517 403.5,388C 407.533,392.368 411.866,396.368 416.5,400C 410.231,404.266 404.564,409.266 399.5,415C 392.955,417.947 390.622,422.947 392.5,430C 389.574,430.218 386.74,430.718 384,431.5C 384.375,423.32 386.042,415.32 389,407.5C 392.289,400.412 396.123,393.745 400.5,387.5 Z"/></g>
<g><path style="opacity:0.892" fill="#fefffe" d="M 445.5,389.5 C 446.5,389.5 447.5,389.5 448.5,389.5C 448.353,394.214 448.686,398.881 449.5,403.5C 446.881,403.768 444.381,403.435 442,402.5C 440.409,409.211 436.576,410.877 430.5,407.5C 429.109,408.645 427.776,408.645 426.5,407.5C 426.709,406.914 427.043,406.414 427.5,406C 425.5,404.667 423.5,403.333 421.5,402C 428.329,395.42 436.329,391.254 445.5,389.5 Z"/></g>
<g><path style="opacity:0.858" fill="#fefffe" d="M 454.5,389.5 C 464.114,390.143 472.781,393.31 480.5,399C 479.449,400.385 478.116,401.385 476.5,402C 477.624,402.249 478.624,402.749 479.5,403.5C 479.333,403.833 479.167,404.167 479,404.5C 474.868,407.048 471.202,410.048 468,413.5C 466.343,412.516 464.677,411.516 463,410.5C 461.612,411.554 460.112,411.72 458.5,411C 460.911,409.045 463.411,407.211 466,405.5C 467.48,403.337 467.48,401.337 466,399.5C 463.2,403.229 459.7,404.562 455.5,403.5C 454.897,398.732 454.564,394.066 454.5,389.5 Z"/></g>
<g><path style="opacity:0.872" fill="#fefffe" d="M 446.5,411.5 C 449.073,411.148 451.406,411.648 453.5,413C 448.599,413.58 448.265,415.247 452.5,418C 458.144,418.806 461.81,421.973 463.5,427.5C 460.908,429.855 461.075,431.855 464,433.5C 464.273,436.393 465.107,439.06 466.5,441.5C 465.554,446.241 462.554,448.574 457.5,448.5C 456.907,450.382 456.24,452.215 455.5,454C 449.547,455.126 444.214,453.793 439.5,450C 441.788,449.178 444.122,448.511 446.5,448C 448.896,444.75 449.563,441.25 448.5,437.5C 446.214,436.58 443.881,436.58 441.5,437.5C 440.709,440.806 438.876,443.473 436,445.5C 432.745,443.484 432.911,442.484 436.5,442.5C 436.383,440.516 437.05,438.85 438.5,437.5C 438,436.5 437.5,435.5 437,434.5C 436.902,436.619 436.069,438.286 434.5,439.5C 433.808,438.975 433.308,438.308 433,437.5C 430.056,438.257 427.056,438.923 424,439.5C 423.5,439.167 423,438.833 422.5,438.5C 423.879,435.707 425.712,433.374 428,431.5C 429.235,432.615 430.402,432.615 431.5,431.5C 432.427,433.113 433.261,434.779 434,436.5C 434.333,436.167 434.667,435.833 435,435.5C 435.18,432.044 435.847,428.711 437,425.5C 439.771,422.441 443.104,420.107 447,418.5C 447.556,416.115 447.39,413.782 446.5,411.5 Z"/></g>
<g><path style="opacity:0.867" fill="#fefffe" d="M 388.5,444.5 C 388.384,441.09 390.05,439.756 393.5,440.5C 393.5,439.167 393.5,437.833 393.5,436.5C 394.833,436.5 396.167,436.5 397.5,436.5C 397.037,433.518 396.704,430.518 396.5,427.5C 402.505,425.933 405.172,428.433 404.5,435C 405.244,439.934 403.411,441.434 399,439.5C 398.933,442.047 398.099,444.214 396.5,446C 397.025,446.692 397.692,447.192 398.5,447.5C 399.167,445.5 399.833,443.5 400.5,441.5C 401.478,441.977 402.311,442.643 403,443.5C 405.247,451.993 409.08,459.66 414.5,466.5C 409.182,472.319 403.682,477.985 398,483.5C 397.308,482.975 396.808,482.308 396.5,481.5C 400.226,478.44 400.393,475.107 397,471.5C 396.343,461.614 393.51,452.614 388.5,444.5 Z"/></g>
<g><path style="opacity:0.639" fill="#fefffe" d="M 388.5,444.5 C 388.392,446.783 387.559,448.783 386,450.5C 385.208,445.431 384.541,440.431 384,435.5C 386.069,436.264 388.236,436.764 390.5,437C 387.83,439.183 387.163,441.683 388.5,444.5 Z"/></g>
<g><path style="opacity:0.801" fill="#fefffe" d="M 508.5,436.5 C 512.293,436.115 516.293,436.115 520.5,436.5C 520.311,440.971 519.477,445.304 518,449.5C 514.586,445.267 511.42,440.934 508.5,436.5 Z"/></g>
<g><path style="opacity:0.925" fill="#fefffe" d="M 525.5,436.5 C 532.044,436.468 538.711,436.468 545.5,436.5C 543.604,459.549 534.937,479.549 519.5,496.5C 518.678,492.529 517.178,488.863 515,485.5C 514.167,486.5 513.333,487.5 512.5,488.5C 510.35,486.851 508.35,485.018 506.5,483C 514.91,474.014 520.577,463.514 523.5,451.5C 524.5,451.5 525.5,451.5 526.5,451.5C 525.557,446.327 525.223,441.327 525.5,436.5 Z"/></g>
<g><path style="opacity:0.932" fill="#fefffe" d="M 549.5,435.5 C 556.122,436.325 562.789,436.325 569.5,435.5C 568.373,465.577 557.707,491.577 537.5,513.5C 532.5,509.167 527.833,504.5 523.5,499.5C 540.554,481.415 549.221,460.082 549.5,435.5 Z"/></g>
<g><path style="opacity:0.9" fill="#fefffe" d="M 335.5,436.5 C 341.833,436.5 348.167,436.5 354.5,436.5C 355.265,444.963 356.432,453.296 358,461.5C 356.497,457.141 354.33,456.641 351.5,460C 349.555,459.872 347.722,460.038 346,460.5C 342.656,468.293 344.823,474.293 352.5,478.5C 353.451,477.674 354.451,477.508 355.5,478C 359.765,480.64 363.431,483.973 366.5,488C 369.245,487.04 370.745,488.207 371,491.5C 375.079,493.575 378.579,496.408 381.5,500C 376.667,504.833 371.833,509.667 367,514.5C 347.22,492.342 336.72,466.342 335.5,436.5 Z"/></g>
<g><path style="opacity:0.842" fill="#fefffe" d="M 359.5,437.5 C 365.645,436.51 371.978,436.177 378.5,436.5C 378.478,440.025 378.978,443.358 380,446.5C 378.981,445.313 377.814,444.313 376.5,443.5C 374.144,445.69 371.644,447.69 369,449.5C 368.13,454.055 366.63,458.389 364.5,462.5C 362.544,454.09 360.877,445.756 359.5,437.5 Z"/></g>
<g><path style="opacity:0.809" fill="#fefffe" d="M 409.5,443.5 C 413.981,444.573 417.647,446.906 420.5,450.5C 421.167,449.833 421.833,449.167 422.5,448.5C 423.355,450.608 424.022,452.774 424.5,455C 422.681,457.489 420.848,459.989 419,462.5C 414.235,456.97 411.068,450.637 409.5,443.5 Z"/></g>
<g><path style="opacity:0.496" fill="#fefffe" d="M 428.5,448.5 C 429.756,448.461 430.756,448.961 431.5,450C 425.602,455.062 424.602,454.562 428.5,448.5 Z"/></g>
<g><path style="opacity:0.826" fill="#fefffe" d="M 476.5,475.5 C 477.167,475.5 477.5,475.167 477.5,474.5C 483.219,475.01 488.719,476.343 494,478.5C 498.291,474.097 499.958,468.764 499,462.5C 496.239,460.983 494.406,461.816 493.5,465C 491.337,466.48 489.337,466.48 487.5,465C 491.222,463.756 494.556,461.922 497.5,459.5C 498.833,457.5 500.167,455.5 501.5,453.5C 502.167,454.167 502.833,454.833 503.5,455.5C 507.261,453.854 511.261,452.854 515.5,452.5C 516.167,452.833 516.833,453.167 517.5,453.5C 514.714,463.079 509.88,471.413 503,478.5C 502.71,476.956 502.044,475.623 501,474.5C 499.337,476.158 498.504,478.158 498.5,480.5C 494.984,480.52 491.317,480.687 487.5,481C 483.563,479.428 479.896,477.595 476.5,475.5 Z"/></g>
<g><path style="opacity:0.889" fill="#fefffe" d="M 434.5,453.5 C 438.942,457.715 444.275,459.715 450.5,459.5C 449.762,462.937 449.762,466.603 450.5,470.5C 446.932,470.759 445.599,472.759 446.5,476.5C 438.083,475.751 430.583,472.751 424,467.5C 423.333,466.5 423.333,465.5 424,464.5C 427.704,460.964 431.204,457.298 434.5,453.5 Z"/></g>
<g><path style="opacity:0.597" fill="#fefffe" d="M 471.5,462.5 C 476.576,463.456 476.41,464.789 471,466.5C 470.5,466.167 470,465.833 469.5,465.5C 470.193,464.482 470.859,463.482 471.5,462.5 Z"/></g>
<g><path style="opacity:0.846" fill="#fefffe" d="M 477.5,474.5 C 476.833,474.5 476.5,474.833 476.5,475.5C 472.586,477.428 468.753,479.428 465,481.5C 461.939,480.682 458.939,479.682 456,478.5C 453.107,479.39 450.274,479.39 447.5,478.5C 447.667,478.167 447.833,477.833 448,477.5C 451.139,474.89 454.472,472.557 458,470.5C 459.872,471.068 461.705,471.735 463.5,472.5C 465.061,471.653 466.561,471.986 468,473.5C 469.487,472.747 469.654,471.914 468.5,471C 471.445,471.726 474.112,470.893 476.5,468.5C 477.72,468.887 478.387,469.72 478.5,471C 478.011,472.138 477.678,473.305 477.5,474.5 Z"/></g>
<g><path style="opacity:0.885" fill="#fefffe" d="M 417.5,470.5 C 424.626,476.73 432.626,480.73 441.5,482.5C 431.905,488.984 432.239,494.984 442.5,500.5C 428.574,498.94 416.241,493.274 405.5,483.5C 410.187,479.787 414.187,475.454 417.5,470.5 Z"/></g>
<g><path style="opacity:0.804" fill="#fefffe" d="M 501.5,486.5 C 503.017,486.511 504.184,487.177 505,488.5C 507.917,491.743 510.417,495.243 512.5,499C 513.5,499.333 514.5,499.667 515.5,500C 511.611,503.857 507.444,507.357 503,510.5C 503.104,507.937 503.104,505.271 503,502.5C 504.353,501.315 505.52,499.981 506.5,498.5C 504.823,496.24 502.657,494.573 500,493.5C 499.4,490.905 499.9,488.571 501.5,486.5 Z"/></g>
<g><path style="opacity:0.92" fill="#fefffe" d="M 406.5,494.5 C 407.251,493.427 408.251,493.26 409.5,494C 420.91,502.97 433.91,507.47 448.5,507.5C 448.6,514.014 448.6,520.348 448.5,526.5C 425.544,524.132 405.377,515.465 388,500.5C 387.312,499.668 387.479,499.002 388.5,498.5C 390.429,499.38 392.263,500.38 394,501.5C 398.839,499.774 403.672,498.274 408.5,497C 407.934,496.005 407.267,495.172 406.5,494.5 Z"/></g>
<g><path style="opacity:0.928" fill="#fefffe" d="M 519.5,502.5 C 524.117,507.454 528.784,512.454 533.5,517.5C 511.34,538.068 485.007,549.068 454.5,550.5C 455.833,543.833 455.833,537.167 454.5,530.5C 461.099,530.742 467.599,530.075 474,528.5C 477.323,530.484 480.657,532.484 484,534.5C 487.412,531.877 490.912,529.377 494.5,527C 496.955,523.922 499.289,520.756 501.5,517.5C 506.638,514.195 511.638,510.695 516.5,507C 517.883,505.729 518.883,504.229 519.5,502.5 Z"/></g>
<g><path style="opacity:0.937" fill="#fefffe" d="M 383.5,504.5 C 388.936,508.09 394.27,511.923 399.5,516C 415.041,525.54 431.708,530.707 449.5,531.5C 448.167,537.5 448.167,543.5 449.5,549.5C 419.385,549.075 393.385,538.575 371.5,518C 375.324,513.343 379.324,508.843 383.5,504.5 Z"/></g>
<g><path style="opacity:0.823" fill="#fefffe" d="M 453.5,509.5 C 454.497,508.287 455.497,508.454 456.5,510C 458.81,510.497 461.143,510.663 463.5,510.5C 461.749,516.823 464.082,520.99 470.5,523C 465.355,524.52 460.022,525.353 454.5,525.5C 454.821,519.974 454.488,514.64 453.5,509.5 Z"/></g>
<g><path style="opacity:0.986" fill="#fefffe" d="M 222.5,693.5 C 296.833,693.5 371.167,693.5 445.5,693.5C 445.5,768.167 445.5,842.833 445.5,917.5C 371.167,917.5 296.833,917.5 222.5,917.5C 222.5,842.833 222.5,768.167 222.5,693.5 Z M 279.5,731.5 C 285.833,731.5 292.167,731.5 298.5,731.5C 298.333,764.835 298.5,798.168 299,831.5C 302.52,859.359 318.02,870.526 345.5,865C 356.833,860.999 364,853.166 367,841.5C 367.794,838.529 368.461,835.529 369,832.5C 369.5,798.835 369.667,765.168 369.5,731.5C 375.833,731.5 382.167,731.5 388.5,731.5C 388.667,762.502 388.5,793.502 388,824.5C 386.466,860.199 367.966,879.199 332.5,881.5C 309.597,881.728 293.763,871.395 285,850.5C 282.151,842.409 280.485,834.076 280,825.5C 279.5,794.168 279.333,762.835 279.5,731.5 Z"/></g>
<g><path style="opacity:0.981" fill="#fefffe" d="M 458.5,693.5 C 532.833,693.5 607.167,693.5 681.5,693.5C 681.5,768.167 681.5,842.833 681.5,917.5C 607.167,917.5 532.833,917.5 458.5,917.5C 458.5,842.833 458.5,768.167 458.5,693.5 Z M 514.5,731.5 C 521.532,731.17 528.532,731.503 535.5,732.5C 552.083,759.335 568.917,786.002 586,812.5C 594.341,826.513 602.175,840.846 609.5,855.5C 609.833,854.333 610.167,853.167 610.5,852C 609.814,845.517 609.314,839.017 609,832.5C 608.5,798.835 608.333,765.168 608.5,731.5C 614.167,731.5 619.833,731.5 625.5,731.5C 625.5,780.833 625.5,830.167 625.5,879.5C 619.132,879.83 612.798,879.496 606.5,878.5C 579.992,838.164 554.992,796.831 531.5,754.5C 531.447,796.12 531.447,837.787 531.5,879.5C 525.833,879.5 520.167,879.5 514.5,879.5C 514.5,830.167 514.5,780.833 514.5,731.5 Z"/></g>
<g><path style="opacity:0.985" fill="#fefffe" d="M 458.5,929.5 C 532.833,929.5 607.167,929.5 681.5,929.5C 681.5,1004.17 681.5,1078.83 681.5,1153.5C 607.167,1153.5 532.833,1153.5 458.5,1153.5C 458.5,1078.83 458.5,1004.17 458.5,929.5 Z M 547.5,966.5 C 557.839,966.334 568.172,966.5 578.5,967C 613.186,973.198 626.02,993.365 617,1027.5C 609.704,1043.07 597.537,1052.24 580.5,1055C 569.519,1056.77 558.519,1056.94 547.5,1055.5C 547.5,1075.17 547.5,1094.83 547.5,1114.5C 541.5,1114.5 535.5,1114.5 529.5,1114.5C 529.167,1066.16 529.5,1017.83 530.5,969.5C 536.262,968.3 541.929,967.3 547.5,966.5 Z"/></g>
<g><path style="opacity:0.987" fill="#fefffe" d="M 222.5,930.5 C 296.833,930.5 371.167,930.5 445.5,930.5C 445.5,1004.83 445.5,1079.17 445.5,1153.5C 371.167,1153.5 296.833,1153.5 222.5,1153.5C 222.5,1079.17 222.5,1004.83 222.5,930.5 Z M 296.5,966.5 C 309.504,966.333 322.504,966.5 335.5,967C 372.211,970.381 393.377,990.214 399,1026.5C 401.9,1049.69 396.567,1070.69 383,1089.5C 368.514,1104.82 350.681,1113.32 329.5,1115C 312.486,1115.71 295.486,1115.54 278.5,1114.5C 278.333,1066.17 278.5,1017.83 279,969.5C 284.906,968.333 290.74,967.333 296.5,966.5 Z"/></g>
<g><path style="opacity:0.977" fill="#fefffe" d="M 304.5,980.5 C 364.753,976.589 388.92,1004.26 377,1063.5C 369.782,1083.7 355.615,1095.87 334.5,1100C 321.839,1101.74 309.173,1101.9 296.5,1100.5C 296.333,1061.17 296.5,1021.83 297,982.5C 299.607,981.877 302.107,981.21 304.5,980.5 Z"/></g>
<g><path style="opacity:0.964" fill="#fefffe" d="M 553.5,981.5 C 563.974,980.904 574.308,981.737 584.5,984C 596.896,988.951 602.563,998.118 601.5,1011.5C 601.085,1028.17 592.751,1038.33 576.5,1042C 567.113,1044.03 557.78,1043.86 548.5,1041.5C 547.5,1021.84 547.167,1002.18 547.5,982.5C 549.735,982.795 551.735,982.461 553.5,981.5 Z"/></g>
</svg>
