<?xml version="1.0" encoding="UTF-8"?>
<!DOCTYPE svg PUBLIC "-//W3C//DTD SVG 1.1//EN" "http://www.w3.org/Graphics/SVG/1.1/DTD/svg11.dtd">
<svg xmlns="http://www.w3.org/2000/svg" version="1.1" width="904px" height="1376px" style="shape-rendering:geometricPrecision; text-rendering:geometricPrecision; image-rendering:optimizeQuality; fill-rule:evenodd; clip-rule:evenodd" xmlns:xlink="http://www.w3.org/1999/xlink">
<g><path style="opacity:0.995" fill="#1768b2" d="M 222.5,221.5 C 375.5,221.5 528.5,221.5 681.5,221.5C 681.5,374.833 681.5,528.167 681.5,681.5C 528.5,681.5 375.5,681.5 222.5,681.5C 222.5,528.167 222.5,374.833 222.5,221.5 Z"/></g>
<g><path style="opacity:1" fill="#fafbfd" d="M 441.5,310.5 C 505.766,310.039 548.599,340.039 570,400.5C 582.234,460.17 563.067,506.67 512.5,540C 473.997,559.603 434.997,560.603 395.5,543C 347.479,515.133 325.645,473.3 330,417.5C 336.198,378.247 356.031,348.081 389.5,327C 405.79,317.769 423.124,312.269 441.5,310.5 Z"/></g>
<g><path style="opacity:1" fill="#246bb4" d="M 454.5,316.5 C 484.109,317.646 509.775,328.146 531.5,348C 526.992,351.342 522.992,355.175 519.5,359.5C 515.837,351.672 509.837,346.672 501.5,344.5C 499.896,344.939 498.396,345.606 497,346.5C 484.338,339.667 470.838,336 456.5,335.5C 454.772,329.336 454.106,323.003 454.5,316.5 Z"/></g>
<g><path style="opacity:1" fill="#1f6ab3" d="M 440.5,316.5 C 442.833,316.5 445.167,316.5 447.5,316.5C 447.5,322.5 447.5,328.5 447.5,334.5C 423.271,336.118 402.271,345.118 384.5,361.5C 380.473,356.806 376.14,352.473 371.5,348.5C 391.158,330.503 414.158,319.836 440.5,316.5 Z"/></g>
<g><path style="opacity:1" fill="#f8f9fc" d="M 541.5,322.5 C 563.345,326.508 576.679,339.675 581.5,362C 581.167,362.5 580.833,363 580.5,363.5C 569.059,354.895 559.559,344.561 552,332.5C 548.631,328.963 545.131,325.629 541.5,322.5 Z"/></g>
<g><path style="opacity:1" fill="#f9fafc" d="M 356.5,323.5 C 357.239,323.369 357.906,323.536 358.5,324C 350.902,332.262 344.068,341.095 338,350.5C 332,355.833 326,361.167 320,366.5C 321.671,351.322 328.838,339.488 341.5,331C 346.592,328.454 351.592,325.954 356.5,323.5 Z"/></g>
<g><path style="opacity:1" fill="#f4f6fb" d="M 466.5,326.5 C 470.576,326.121 474.243,327.121 477.5,329.5C 476.619,330.971 475.286,331.804 473.5,332C 468.839,332.834 464.172,333.168 459.5,333C 458.833,332.333 458.167,331.667 457.5,331C 460.613,329.583 463.613,328.083 466.5,326.5 Z"/></g>
<g><path style="opacity:1" fill="#f9fafc" d="M 575.5,338.5 C 575.56,337.957 575.893,337.624 576.5,337.5C 586.283,342.115 593.116,349.449 597,359.5C 598.609,372.43 598.942,385.43 598,398.5C 593.867,393.366 589.367,388.532 584.5,384C 574.282,378.115 566.449,369.949 561,359.5C 559.885,356.845 559.218,354.179 559,351.5C 565.158,358.651 572.325,364.484 580.5,369C 585.805,373.299 589.972,378.466 593,384.5C 590.096,370.557 586.096,356.891 581,343.5C 579.296,341.627 577.463,339.96 575.5,338.5 Z"/></g>
<g><path style="opacity:1" fill="#f9fafc" d="M 305.5,400.5 C 304.833,395.833 304.167,391.167 303.5,386.5C 300.568,369.694 305.235,355.527 317.5,344C 319.569,342.126 321.902,341.126 324.5,341C 321.707,344.081 319.54,347.581 318,351.5C 315.114,363.618 312.114,375.618 309,387.5C 314.833,376.333 323.333,367.833 334.5,362C 337.704,359.131 340.537,355.965 343,352.5C 342.294,359.588 339.627,365.921 335,371.5C 328.486,378.495 321.319,384.661 313.5,390C 310.617,393.376 307.951,396.876 305.5,400.5 Z"/></g>
<g><path style="opacity:1" fill="#206ab3" d="M 439.5,341.5 C 442.167,341.5 444.833,341.5 447.5,341.5C 447.5,347.5 447.5,353.5 447.5,359.5C 429.872,360.373 414.539,366.707 401.5,378.5C 397.648,373.815 393.315,369.648 388.5,366C 403.215,352.975 420.215,344.808 439.5,341.5 Z"/></g>
<g><path style="opacity:1" fill="#216ab3" d="M 499.5,369.5 C 498.448,369.649 497.448,369.483 496.5,369C 495.174,366.842 493.507,365.008 491.5,363.5C 491.167,363.667 490.833,363.833 490.5,364C 492.252,366.514 492.919,369.014 492.5,371.5C 480.92,364.104 468.253,360.104 454.5,359.5C 454.5,353.5 454.5,347.5 454.5,341.5C 467.034,342.107 479.034,344.94 490.5,350C 492,351.5 493.5,353 495,354.5C 495.113,356.974 496.113,358.974 498,360.5C 498.502,363.513 499.002,366.513 499.5,369.5 Z"/></g>
<g><path style="opacity:1" fill="#edf0f8" d="M 506.5,341.5 C 509.833,340.833 511.833,342.167 512.5,345.5C 509.309,346.352 507.309,345.019 506.5,341.5 Z"/></g>
<g><path style="opacity:1" fill="#216ab3" d="M 366.5,352.5 C 371.294,356.462 375.627,360.962 379.5,366C 363.41,384.427 355.077,405.927 354.5,430.5C 348.167,430.5 341.833,430.5 335.5,430.5C 335.624,409.628 341.124,390.295 352,372.5C 356.665,365.675 361.498,359.009 366.5,352.5 Z"/></g>
<g><path style="opacity:1" fill="#1f6ab3" d="M 564.5,429.5 C 559.833,429.5 555.167,429.5 550.5,429.5C 550.737,428.209 550.404,427.209 549.5,426.5C 548.091,402.523 538.758,382.356 521.5,366C 526.675,361.991 531.342,357.491 535.5,352.5C 556.035,373.922 567.035,399.589 568.5,429.5C 567.167,429.5 565.833,429.5 564.5,429.5 Z"/></g>
<g><path style="opacity:1" fill="#226ab3" d="M 454.5,365.5 C 470.84,366.554 485.173,372.387 497.5,383C 492.685,386.648 488.352,390.815 484.5,395.5C 475.891,388.182 465.891,384.182 454.5,383.5C 454.5,377.5 454.5,371.5 454.5,365.5 Z"/></g>
<g><path style="opacity:1" fill="#f9fafc" d="M 601.5,360.5 C 613.793,375.004 617.96,391.671 614,410.5C 609.992,420.191 606.992,430.191 605,440.5C 603.582,435.656 601.582,430.99 599,426.5C 593.245,417.99 587.245,409.657 581,401.5C 577.642,395.087 575.308,388.421 574,381.5C 581.613,389.113 589.279,396.779 597,404.5C 600.731,410.3 603.064,416.633 604,423.5C 603.217,408.177 603.384,392.843 604.5,377.5C 604.978,371.506 603.978,365.84 601.5,360.5 Z"/></g>
<g><path style="opacity:1" fill="#1f6ab3" d="M 441.5,365.5 C 443.5,365.5 445.5,365.5 447.5,365.5C 447.5,371.5 447.5,377.5 447.5,383.5C 436.46,383.901 426.96,387.901 419,395.5C 414.985,391.318 410.818,387.318 406.5,383.5C 416.43,374.082 428.097,368.082 441.5,365.5 Z"/></g>
<g><path style="opacity:1" fill="#fbfbfd" d="M 297.5,366.5 C 298.883,385.937 299.383,405.604 299,425.5C 300.441,417.848 303.441,410.848 308,404.5C 314.678,397.296 321.511,390.963 328.5,385.5C 326.966,390.934 325.133,396.268 323,401.5C 316.667,410.833 310.333,420.167 304,429.5C 301.938,433.688 300.271,438.021 299,442.5C 296.799,433.232 293.799,424.232 290,415.5C 284.929,397.93 287.429,381.597 297.5,366.5 Z"/></g>
<g><path style="opacity:1" fill="#246bb4" d="M 543.5,428.5 C 538.025,429.489 532.358,429.822 526.5,429.5C 526.768,427.901 526.434,426.568 525.5,425.5C 524.754,421.477 524.42,417.477 524.5,413.5C 521.27,418.032 519.604,423.032 519.5,428.5C 517.735,429.461 515.735,429.795 513.5,429.5C 513.5,427.833 513.5,426.167 513.5,424.5C 515.39,424.703 516.89,424.037 518,422.5C 521.632,415.507 522.632,408.174 521,400.5C 517.333,399.74 516.833,398.24 519.5,396C 518.552,395.517 517.552,395.351 516.5,395.5C 516.33,394.178 516.663,393.011 517.5,392C 515.527,391.505 513.527,391.338 511.5,391.5C 507.138,384.444 503.138,377.11 499.5,369.5C 501.819,368.833 504.153,368.666 506.5,369C 508.167,372.667 509.833,376.333 511.5,380C 512.5,380.333 513.5,380.667 514.5,381C 517.239,384.876 520.905,387.543 525.5,389C 527.644,391.979 529.978,394.812 532.5,397.5C 533.891,396.355 535.224,396.355 536.5,397.5C 540.885,407.374 543.218,417.707 543.5,428.5 Z"/></g>
<g><path style="opacity:1" fill="#226bb3" d="M 383.5,370.5 C 387.927,374.75 392.593,378.917 397.5,383C 384.924,396.321 378.591,412.155 378.5,430.5C 372.167,430.5 365.833,430.5 359.5,430.5C 361.064,407.785 369.064,387.785 383.5,370.5 Z"/></g>
<g><path style="opacity:1" fill="#276cb4" d="M 400.5,387.5 C 405.607,391.432 410.607,395.599 415.5,400C 409.231,404.266 403.564,409.266 398.5,415C 391.955,417.947 389.622,422.947 391.5,430C 388.833,430.667 386.167,430.667 383.5,430C 384.276,423.056 385.776,416.223 388,409.5C 391.431,401.624 395.598,394.291 400.5,387.5 Z"/></g>
<g><path style="opacity:1" fill="#276cb4" d="M 500.5,387.5 C 503.755,389.926 506.588,392.926 509,396.5C 509.155,398.856 509.155,401.189 509,403.5C 515.614,406.395 518.281,411.395 517,418.5C 514.505,423.496 513.172,423.496 513,418.5C 513.465,417.069 514.299,415.903 515.5,415C 513.598,413.095 511.432,411.595 509,410.5C 507.715,410.95 506.548,411.617 505.5,412.5C 504.959,409.266 503.626,406.433 501.5,404C 496.875,402.838 492.208,402.504 487.5,403C 486.54,404.419 485.707,405.919 485,407.5C 484.308,406.975 483.808,406.308 483.5,405.5C 489.188,399.48 494.855,393.48 500.5,387.5 Z"/></g>
<g><path style="opacity:1" fill="#6c8dc7" d="M 303.5,386.5 C 304.167,391.167 304.833,395.833 305.5,400.5C 305.217,401.289 304.717,401.956 304,402.5C 303.501,397.177 303.334,391.844 303.5,386.5 Z"/></g>
<g><path style="opacity:1" fill="#236bb4" d="M 444.5,390.5 C 445.5,390.5 446.5,390.5 447.5,390.5C 447.185,394.371 447.518,398.038 448.5,401.5C 448.631,402.239 448.464,402.906 448,403.5C 446.75,402.427 445.416,402.427 444,403.5C 443.055,403.095 442.388,402.428 442,401.5C 440.883,402.949 440.216,404.616 440,406.5C 436.667,409.167 433.333,409.167 430,406.5C 429.167,409 428,409.167 426.5,407C 427.711,406.107 427.711,405.274 426.5,404.5C 424.833,403.667 423.167,402.833 421.5,402C 427.821,395.506 435.488,391.673 444.5,390.5 Z"/></g>
<g><path style="opacity:1" fill="#b8c4e3" d="M 444.5,390.5 C 445.568,389.566 446.901,389.232 448.5,389.5C 448.5,393.5 448.5,397.5 448.5,401.5C 447.518,398.038 447.185,394.371 447.5,390.5C 446.5,390.5 445.5,390.5 444.5,390.5 Z"/></g>
<g><path style="opacity:1" fill="#286cb4" d="M 458.5,390.5 C 466.168,391.667 473.168,394.5 479.5,399C 478.5,399.833 477.5,400.667 476.5,401.5C 477.811,402.258 478.311,403.258 478,404.5C 474.28,406.767 471.113,409.6 468.5,413C 466.474,412.537 464.474,411.704 462.5,410.5C 461.136,411.043 459.803,411.21 458.5,411C 460.911,409.045 463.411,407.211 466,405.5C 467.128,403.655 467.628,401.655 467.5,399.5C 464.86,399.954 462.527,401.121 460.5,403C 458.735,403.64 457.068,403.473 455.5,402.5C 455.5,398.5 455.5,394.5 455.5,390.5C 456.5,390.5 457.5,390.5 458.5,390.5 Z"/></g>
<g><path style="opacity:1" fill="#849ecf" d="M 458.5,390.5 C 457.5,390.5 456.5,390.5 455.5,390.5C 455.5,394.5 455.5,398.5 455.5,402.5C 454.515,398.366 454.182,394.032 454.5,389.5C 456.099,389.232 457.432,389.566 458.5,390.5 Z"/></g>
<g><path style="opacity:1" fill="#b3c0e1" d="M 621.5,409.5 C 620.833,411.167 620.167,412.833 619.5,414.5C 619.335,411.15 619.502,407.817 620,404.5C 620.608,406.154 621.108,407.821 621.5,409.5 Z"/></g>
<g><path style="opacity:1" fill="#fafbfd" d="M 621.5,409.5 C 625.693,427.652 623.526,444.986 615,461.5C 609,469.5 603,477.5 597,485.5C 596.667,479.833 596.333,474.167 596,468.5C 593.329,459.822 590.663,451.156 588,442.5C 586.507,435.206 585.341,427.873 584.5,420.5C 584.232,418.901 584.566,417.568 585.5,416.5C 590.132,426.43 595.299,436.097 601,445.5C 601.977,447.74 602.477,450.073 602.5,452.5C 602.9,458.641 602.233,464.641 600.5,470.5C 600.833,470.833 601.167,471.167 601.5,471.5C 602.658,468.524 603.658,465.524 604.5,462.5C 606.279,451.603 609.779,441.27 615,431.5C 617.221,426.007 618.721,420.34 619.5,414.5C 620.167,412.833 620.833,411.167 621.5,409.5 Z"/></g>
<g><path style="opacity:1" fill="#b6c3e3" d="M 283.5,415.5 C 282.833,414.833 282.167,414.167 281.5,413.5C 281.892,411.821 282.392,410.154 283,408.5C 283.497,410.81 283.663,413.143 283.5,415.5 Z"/></g>
<g><path style="opacity:1" fill="#f8f9fc" d="M 281.5,413.5 C 282.167,414.167 282.833,414.833 283.5,415.5C 283.808,419.595 284.641,423.595 286,427.5C 289.667,436.167 293.333,444.833 297,453.5C 298.042,460.335 299.709,467.001 302,473.5C 301.904,469.335 301.404,465.168 300.5,461C 301.205,456.477 302.038,451.977 303,447.5C 308.349,436.802 313.682,426.136 319,415.5C 318.033,434.002 314.366,452.002 308,469.5C 307.667,475.5 307.333,481.5 307,487.5C 298.894,478.062 291.561,468.062 285,457.5C 279.362,443.14 278.195,428.473 281.5,413.5 Z"/></g>
<g><path style="opacity:1" fill="#99acd7" d="M 585.5,416.5 C 584.566,417.568 584.232,418.901 584.5,420.5C 583.371,418.372 583.204,416.039 584,413.5C 584.513,414.527 585.013,415.527 585.5,416.5 Z"/></g>
<g><path style="opacity:1" fill="#246bb4" d="M 447.5,411.5 C 453.261,411.87 453.594,412.87 448.5,414.5C 450.149,417.739 452.816,419.239 456.5,419C 461.124,421.892 462.791,425.892 461.5,431C 462.955,434.577 464.289,438.244 465.5,442C 465.097,443.473 464.43,444.806 463.5,446C 457.746,445.255 455.079,447.755 455.5,453.5C 449.649,454.326 444.316,453.159 439.5,450C 445.902,450.098 449.235,446.932 449.5,440.5C 449.43,439.228 449.097,438.062 448.5,437C 445.854,436.503 443.187,436.336 440.5,436.5C 440.785,438.288 440.452,439.955 439.5,441.5C 437.833,442.5 436.5,443.833 435.5,445.5C 435.167,445.167 434.833,444.833 434.5,444.5C 435.929,442.045 437.262,439.545 438.5,437C 434.192,431.48 434.859,426.48 440.5,422C 442.901,421.205 445.068,420.038 447,418.5C 447.144,415.975 447.31,413.642 447.5,411.5 Z"/></g>
<g><path style="opacity:1" fill="#2b6db5" d="M 396.5,427.5 C 402.239,426.073 404.572,428.24 403.5,434C 403.333,435.833 403.167,437.667 403,439.5C 401.062,440.86 399.396,440.527 398,438.5C 397.971,441.367 397.138,443.867 395.5,446C 396.333,446.833 397.167,447.667 398,448.5C 398.543,446.369 399.376,444.369 400.5,442.5C 402.654,445.432 404.154,448.766 405,452.5C 407.08,457.666 409.913,462.333 413.5,466.5C 408.682,471.819 403.682,476.985 398.5,482C 397.668,482.688 397.002,482.521 396.5,481.5C 400.262,478.419 400.429,475.086 397,471.5C 395.815,465.87 394.815,460.203 394,454.5C 391.256,451.093 389.423,447.26 388.5,443C 389.385,440.843 391.052,440.01 393.5,440.5C 393.5,439.167 393.5,437.833 393.5,436.5C 394.833,436.5 396.167,436.5 397.5,436.5C 397.679,434.046 397.013,431.879 395.5,430C 395.743,429.098 396.077,428.265 396.5,427.5 Z"/></g>
<g><path style="opacity:1" fill="#97abd6" d="M 519.5,428.5 C 520.043,428.56 520.376,428.893 520.5,429.5C 518.027,430.797 515.693,430.797 513.5,429.5C 515.735,429.795 517.735,429.461 519.5,428.5 Z"/></g>
<g><path style="opacity:1" fill="#b2c0e1" d="M 525.5,425.5 C 526.434,426.568 526.768,427.901 526.5,429.5C 532.358,429.822 538.025,429.489 543.5,428.5C 544.043,428.56 544.376,428.893 544.5,429.5C 538.202,430.496 531.868,430.83 525.5,430.5C 525.5,428.833 525.5,427.167 525.5,425.5 Z"/></g>
<g><path style="opacity:1" fill="#b5c2e3" d="M 549.5,426.5 C 550.404,427.209 550.737,428.209 550.5,429.5C 555.167,429.5 559.833,429.5 564.5,429.5C 559.695,430.487 554.695,430.821 549.5,430.5C 549.5,429.167 549.5,427.833 549.5,426.5 Z"/></g>
<g><path style="opacity:1" fill="#3370b6" d="M 425.5,432.5 C 429.458,431.572 432.125,432.906 433.5,436.5C 434.687,435.106 435.354,435.273 435.5,437C 435.167,437.5 434.833,438 434.5,438.5C 430.583,438.309 426.583,438.143 422.5,438C 424.342,436.654 425.342,434.821 425.5,432.5 Z"/></g>
<g><path style="opacity:1" fill="#89a0d1" d="M 335.5,437.5 C 341.645,436.51 347.978,436.177 354.5,436.5C 354.5,437.833 354.5,439.167 354.5,440.5C 353.596,439.791 353.263,438.791 353.5,437.5C 347.5,437.5 341.5,437.5 335.5,437.5 Z"/></g>
<g><path style="opacity:1" fill="#8da3d3" d="M 374.5,443.5 C 375.209,442.596 376.209,442.263 377.5,442.5C 377.5,440.833 377.5,439.167 377.5,437.5C 371.402,436.883 365.735,437.55 360.5,439.5C 359.596,438.791 359.263,437.791 359.5,436.5C 365.833,436.5 372.167,436.5 378.5,436.5C 378.664,439.187 378.497,441.854 378,444.5C 376.989,443.663 375.822,443.33 374.5,443.5 Z"/></g>
<g><path style="opacity:1" fill="#316fb6" d="M 508.5,436.5 C 511.918,436.296 515.584,436.296 519.5,436.5C 519.299,440.574 518.632,444.574 517.5,448.5C 514.416,444.436 511.416,440.436 508.5,436.5 Z"/></g>
<g><path style="opacity:1" fill="#206ab3" d="M 525.5,436.5 C 531.842,436.334 538.175,436.5 544.5,437C 542.478,459.242 534.145,478.742 519.5,495.5C 518.456,492.2 517.123,489.033 515.5,486C 514.004,485.493 512.837,485.993 512,487.5C 510.075,486.12 508.241,484.62 506.5,483C 514.617,474.271 520.284,464.105 523.5,452.5C 524.325,451.614 525.325,451.281 526.5,451.5C 525.671,446.547 525.337,441.547 525.5,436.5 Z"/></g>
<g><path style="opacity:1" fill="#1e6ab3" d="M 549.5,435.5 C 555.744,436.458 562.077,436.791 568.5,436.5C 567.071,465.97 556.571,491.636 537,513.5C 532.991,508.325 528.491,503.658 523.5,499.5C 540.425,481.633 549.092,460.3 549.5,435.5 Z"/></g>
<g><path style="opacity:1" fill="#246bb4" d="M 335.5,437.5 C 341.5,437.5 347.5,437.5 353.5,437.5C 353.263,438.791 353.596,439.791 354.5,440.5C 355.236,447.236 356.07,453.903 357,460.5C 356.221,459.272 355.221,458.272 354,457.5C 352.374,458.289 350.874,459.289 349.5,460.5C 346.843,458.886 345.01,459.552 344,462.5C 342.496,469.314 344.663,474.481 350.5,478C 351.784,478.684 352.951,478.517 354,477.5C 355.526,480.578 358.026,482.412 361.5,483C 362.501,487.164 365.167,489.33 369.5,489.5C 372.765,492.721 375.931,496.054 379,499.5C 375.881,504.803 371.715,509.47 366.5,513.5C 347.193,491.933 336.86,466.599 335.5,437.5 Z"/></g>
<g><path style="opacity:1" fill="#206ab3" d="M 374.5,443.5 C 372.981,445.614 370.981,447.28 368.5,448.5C 367.21,452.904 365.71,457.237 364,461.5C 362.215,454.266 361.048,446.933 360.5,439.5C 365.735,437.55 371.402,436.883 377.5,437.5C 377.5,439.167 377.5,440.833 377.5,442.5C 376.209,442.263 375.209,442.596 374.5,443.5 Z"/></g>
<g><path style="opacity:1" fill="#4c7bbd" d="M 383.5,437.5 C 385.288,436.378 387.288,436.211 389.5,437C 387.234,440.646 386.068,444.48 386,448.5C 385.205,444.688 384.371,441.021 383.5,437.5 Z"/></g>
<g><path style="opacity:1" fill="#2a6db5" d="M 409.5,445.5 C 410.601,444.402 411.934,444.235 413.5,445C 415.901,447.1 418.235,449.267 420.5,451.5C 421.192,450.975 421.692,450.308 422,449.5C 423.15,451.754 423.484,454.087 423,456.5C 421.315,458.017 419.815,459.684 418.5,461.5C 414.431,456.687 411.431,451.354 409.5,445.5 Z"/></g>
<g><path style="opacity:1" fill="#9aadd8" d="M 428.5,448.5 C 429.289,448.783 429.956,449.283 430.5,450C 425.126,454.817 424.459,454.317 428.5,448.5 Z"/></g>
<g><path style="opacity:1" fill="#2f6fb6" d="M 500.5,453.5 C 501.937,455.843 503.604,456.01 505.5,454C 509.167,453.333 512.833,453.333 516.5,454C 513.675,462.819 509.175,470.652 503,477.5C 502.333,476.167 501.667,474.833 501,473.5C 498.762,475.309 497.595,477.642 497.5,480.5C 494.781,480.397 492.115,480.731 489.5,481.5C 485.232,479.516 480.899,477.683 476.5,476C 482.937,476.024 489.271,476.691 495.5,478C 498.199,473.168 499.366,468.002 499,462.5C 496.138,461.171 493.972,462.004 492.5,465C 491.167,465.667 489.833,465.667 488.5,465C 491.599,463.257 494.599,461.424 497.5,459.5C 499.038,457.757 500.038,455.757 500.5,453.5 Z"/></g>
<g><path style="opacity:1" fill="#266cb4" d="M 433.5,454.5 C 436.834,456.834 440.501,458.667 444.5,460C 445.899,460.595 447.232,460.428 448.5,459.5C 448.625,463.159 448.958,466.826 449.5,470.5C 445.932,470.759 444.599,472.759 445.5,476.5C 437.589,475.295 430.422,472.295 424,467.5C 423.333,466.5 423.333,465.5 424,464.5C 428.046,461.955 431.213,458.622 433.5,454.5 Z"/></g>
<g><path style="opacity:1" fill="#f8f9fc" d="M 317.5,455.5 C 318.933,458.282 320.1,461.282 321,464.5C 323.599,480.423 325.599,496.423 327,512.5C 328.133,517.6 329.967,522.433 332.5,527C 317.459,520.002 303.959,510.502 292,498.5C 283.382,487.646 279.382,475.312 280,461.5C 281.973,467.449 284.973,472.783 289,477.5C 294.667,483.167 300.333,488.833 306,494.5C 310.423,501.011 315.089,507.345 320,513.5C 318.143,509.418 316.476,505.084 315,500.5C 313.994,496.402 313.494,492.236 313.5,488C 315.359,477.247 316.692,466.413 317.5,455.5 Z"/></g>
<g><path style="opacity:1" fill="#f8f9fc" d="M 585.5,453.5 C 587.102,464.538 588.768,475.705 590.5,487C 589.818,495.222 587.984,503.056 585,510.5C 589.246,505.009 593.246,499.342 597,493.5C 603.699,487.136 610.032,480.469 616,473.5C 619.194,468.446 621.861,463.112 624,457.5C 623.84,480.32 614.34,498.153 595.5,511C 587.41,515.794 579.576,520.961 572,526.5C 574.027,521.072 575.693,515.405 577,509.5C 578.486,496.516 579.819,483.516 581,470.5C 582.036,464.69 583.536,459.023 585.5,453.5 Z"/></g>
<g><path style="opacity:1" fill="#4578bb" d="M 471.5,462.5 C 472.675,462.281 473.675,462.614 474.5,463.5C 469.901,467.6 468.901,467.266 471.5,462.5 Z"/></g>
<g><path style="opacity:1" fill="#688bc6" d="M 602.5,452.5 C 603.167,455.833 603.833,459.167 604.5,462.5C 603.658,465.524 602.658,468.524 601.5,471.5C 601.167,471.167 600.833,470.833 600.5,470.5C 602.233,464.641 602.9,458.641 602.5,452.5 Z"/></g>
<g><path style="opacity:1" fill="#316fb6" d="M 474.5,469.5 C 475.5,469.5 476.5,469.5 477.5,469.5C 477.451,472.099 476.451,474.266 474.5,476C 470.644,477.09 467.31,478.924 464.5,481.5C 461.563,480.321 458.563,479.321 455.5,478.5C 453.471,478.67 451.471,479.004 449.5,479.5C 448.068,479.267 447.568,478.6 448,477.5C 451.139,474.89 454.472,472.557 458,470.5C 460.972,471.974 464.139,472.974 467.5,473.5C 468.248,470.705 469.748,470.038 472,471.5C 473.301,471.361 474.134,470.695 474.5,469.5 Z"/></g>
<g><path style="opacity:1" fill="#216ab3" d="M 416.5,471.5 C 419.947,473.397 423.28,475.563 426.5,478C 430.525,480.514 434.859,482.181 439.5,483C 431.067,489.628 431.734,495.295 441.5,500C 428.516,498.26 417.016,493.094 407,484.5C 406.333,483.833 406.333,483.167 407,482.5C 410.75,479.256 413.917,475.589 416.5,471.5 Z"/></g>
<g><path style="opacity:1" fill="#2e6eb5" d="M 501.5,487.5 C 505.741,490.572 509.075,494.406 511.5,499C 512.5,499.333 513.5,499.667 514.5,500C 510.383,503.15 506.549,506.65 503,510.5C 503.633,508.662 503.466,506.829 502.5,505C 503.223,502.447 504.556,500.28 506.5,498.5C 505.048,495.878 502.881,494.212 500,493.5C 499.252,491.16 499.752,489.16 501.5,487.5 Z"/></g>
<g><path style="opacity:1" fill="#fafbfd" d="M 572.5,489.5 C 573.043,489.56 573.376,489.893 573.5,490.5C 570.713,503.168 567.88,515.835 565,528.5C 561.347,534.965 556.847,540.798 551.5,546C 552.167,546.667 552.833,546.667 553.5,546C 558.476,541.513 563.809,537.513 569.5,534C 580.315,529.095 590.648,523.428 600.5,517C 604.369,513.466 607.869,509.633 611,505.5C 606.465,521.338 596.965,533.505 582.5,542C 578.286,544.274 573.953,546.274 569.5,548C 559.852,550.329 550.185,552.496 540.5,554.5C 539.479,553.998 539.312,553.332 540,552.5C 543.78,548.718 546.78,544.384 549,539.5C 552.333,530.167 555.667,520.833 559,511.5C 562.759,503.637 567.259,496.304 572.5,489.5 Z"/></g>
<g><path style="opacity:1" fill="#fafbfd" d="M 330.5,491.5 C 334.223,495.92 337.723,500.586 341,505.5C 346.667,519.167 352.333,532.833 358,546.5C 360.128,549.63 362.628,552.463 365.5,555C 355.494,553.777 345.494,552.11 335.5,550C 313.545,542.711 299.045,528.211 292,506.5C 295.12,511.954 299.287,516.454 304.5,520C 313.759,525.796 323.425,530.796 333.5,535C 339.779,538.946 345.779,543.279 351.5,548C 352.167,548.667 352.833,548.667 353.5,548C 344.825,541.001 338.992,532.168 336,521.5C 334.918,511.341 333.085,501.341 330.5,491.5 Z"/></g>
<g><path style="opacity:1" fill="#206ab3" d="M 442.5,507.5 C 443.919,508.451 445.585,508.784 447.5,508.5C 447.179,514.026 447.512,519.36 448.5,524.5C 432.05,524.711 416.717,520.211 402.5,511C 397.5,507.333 392.5,503.667 387.5,500C 389.757,499.888 391.924,500.388 394,501.5C 398.022,500.058 402.189,499.225 406.5,499C 409.003,497.451 409.003,495.784 406.5,494C 414.261,498.71 422.595,502.71 431.5,506C 435.145,506.719 438.812,507.219 442.5,507.5 Z"/></g>
<g><path style="opacity:1" fill="#206ab3" d="M 518.5,504.5 C 523.406,507.898 527.906,511.898 532,516.5C 532.667,517.167 532.667,517.833 532,518.5C 510.05,537.933 484.383,548.599 455,550.5C 454.5,544.175 454.334,537.842 454.5,531.5C 461.827,530.592 469.161,530.092 476.5,530C 478.958,532.847 481.958,534.18 485.5,534C 487.156,532.171 489.156,530.837 491.5,530C 495.471,525.358 499.471,520.692 503.5,516C 509.255,513.069 514.255,509.236 518.5,504.5 Z"/></g>
<g><path style="opacity:1" fill="#1e69b3" d="M 383.5,505.5 C 392.803,512.604 402.803,518.771 413.5,524C 424.412,528.395 435.745,530.895 447.5,531.5C 447.419,537.919 447.586,544.252 448,550.5C 418.905,548.305 393.405,537.638 371.5,518.5C 375.522,514.146 379.522,509.813 383.5,505.5 Z"/></g>
<g><path style="opacity:1" fill="#b5c2e2" d="M 442.5,507.5 C 444.5,507.5 446.5,507.5 448.5,507.5C 448.5,513.167 448.5,518.833 448.5,524.5C 447.512,519.36 447.179,514.026 447.5,508.5C 445.585,508.784 443.919,508.451 442.5,507.5 Z"/></g>
<g><path style="opacity:1" fill="#2f6eb6" d="M 454.5,509.5 C 457.054,510.388 459.721,510.721 462.5,510.5C 460.749,516.823 463.082,520.99 469.5,523C 464.511,523.974 459.511,524.808 454.5,525.5C 454.5,520.167 454.5,514.833 454.5,509.5 Z"/></g>
<g><path style="opacity:1" fill="#f8f9fc" d="M 520.5,560.5 C 518.287,560.848 516.287,561.681 514.5,563C 518.071,563.448 521.404,562.948 524.5,561.5C 538.83,559.818 553.163,557.984 567.5,556C 574.149,554.26 579.983,551.093 585,546.5C 581.365,553.81 575.865,559.643 568.5,564C 557.071,570.941 544.737,573.608 531.5,572C 519.097,569.655 506.764,566.988 494.5,564C 501.474,562.119 508.141,559.453 514.5,556C 525.7,545.131 537.2,534.631 549,524.5C 545.267,533.3 540.933,541.967 536,550.5C 531.736,555.27 526.569,558.603 520.5,560.5 Z"/></g>
<g><path style="opacity:1" fill="#f9fafc" d="M 354.5,525.5 C 365.927,534.755 376.927,544.588 387.5,555C 394.352,559.426 401.685,562.76 409.5,565C 399.094,567.038 388.761,569.371 378.5,572C 353.662,576.724 333.662,569.057 318.5,549C 324.264,552.71 330.597,555.71 337.5,558C 355.277,559.568 372.944,561.568 390.5,564C 382.794,562.209 375.96,558.709 370,553.5C 364.048,544.595 358.881,535.262 354.5,525.5 Z"/></g>
<g><path style="opacity:1" fill="#678bc5" d="M 520.5,560.5 C 521.568,561.434 522.901,561.768 524.5,561.5C 521.404,562.948 518.071,563.448 514.5,563C 516.287,561.681 518.287,560.848 520.5,560.5 Z"/></g>
<g><path style="opacity:1" fill="#fafbfd" d="M 426.5,564.5 C 435.342,564.083 444.009,565.083 452.5,567.5C 463.934,564.046 475.601,563.546 487.5,566C 499.963,571.232 512.63,575.899 525.5,580C 530.833,580.667 536.167,580.667 541.5,580C 546.263,578.972 550.929,577.972 555.5,577C 539.943,590.977 522.277,594.31 502.5,587C 499.167,585.333 495.833,583.667 492.5,582C 486.174,577.169 479.508,572.835 472.5,569C 468.5,568.333 464.5,568.333 460.5,569C 460.167,569.333 459.833,569.667 459.5,570C 473.986,576.334 486.652,585.167 497.5,596.5C 495.836,600.036 493.169,601.536 489.5,601C 479.351,588.343 467.018,578.51 452.5,571.5C 437.461,579.199 424.461,589.532 413.5,602.5C 410.58,600.778 408.747,598.445 408,595.5C 419.376,585.227 431.876,576.56 445.5,569.5C 440.445,568.171 435.445,568.338 430.5,570C 423.328,574.419 416.328,579.085 409.5,584C 387.087,595.962 366.42,593.629 347.5,577C 351.209,578.681 355.209,580.014 359.5,581C 366.167,581.667 372.833,581.667 379.5,581C 389.047,577.894 398.38,574.227 407.5,570C 413.835,567.711 420.169,565.877 426.5,564.5 Z"/></g>
<g><path style="opacity:0.99" fill="#1768b2" d="M 222.5,693.5 C 296.833,693.5 371.167,693.5 445.5,693.5C 445.5,768.167 445.5,842.833 445.5,917.5C 371.167,917.5 296.833,917.5 222.5,917.5C 222.5,842.833 222.5,768.167 222.5,693.5 Z"/></g>
<g><path style="opacity:0.984" fill="#1768b2" d="M 457.5,693.5 C 532.167,693.5 606.833,693.5 681.5,693.5C 681.5,768.167 681.5,842.833 681.5,917.5C 606.833,917.5 532.167,917.5 457.5,917.5C 457.5,842.833 457.5,768.167 457.5,693.5 Z"/></g>
<g><path style="opacity:1" fill="#fefefe" d="M 279.5,731.5 C 285.5,731.5 291.5,731.5 297.5,731.5C 297.168,763.338 297.502,795.004 298.5,826.5C 298.632,839.594 303.299,850.76 312.5,860C 327.034,868.861 341.367,868.528 355.5,859C 363.463,850.472 367.963,840.305 369,828.5C 369.5,796.168 369.667,763.835 369.5,731.5C 375.5,731.5 381.5,731.5 387.5,731.5C 387.5,763.167 387.5,794.833 387.5,826.5C 385.576,860.756 367.576,879.089 333.5,881.5C 302.472,880.977 284.638,865.311 280,834.5C 279.5,800.168 279.333,765.835 279.5,731.5 Z"/></g>
<g><path style="opacity:1" fill="#b8c5e4" d="M 279.5,731.5 C 285.645,730.51 291.978,730.177 298.5,730.5C 298.5,762.5 298.5,794.5 298.5,826.5C 297.502,795.004 297.168,763.338 297.5,731.5C 291.5,731.5 285.5,731.5 279.5,731.5 Z"/></g>
<g><path style="opacity:1" fill="#b6c3e3" d="M 369.5,731.5 C 375.645,730.51 381.978,730.177 388.5,730.5C 388.832,762.671 388.498,794.671 387.5,826.5C 387.5,794.833 387.5,763.167 387.5,731.5C 381.5,731.5 375.5,731.5 369.5,731.5 Z"/></g>
<g><path style="opacity:1" fill="#fcfdfe" d="M 514.5,731.5 C 521.532,731.17 528.532,731.503 535.5,732.5C 551.333,757.5 567.167,782.5 583,807.5C 592.442,822.716 601.109,838.382 609,854.5C 607.715,813.53 607.215,772.53 607.5,731.5C 613.5,731.5 619.5,731.5 625.5,731.5C 625.5,780.833 625.5,830.167 625.5,879.5C 618.8,879.83 612.134,879.497 605.5,878.5C 589.531,852.7 573.364,827.033 557,801.5C 547.932,786.088 539.265,770.421 531,754.5C 531.429,796.152 531.596,837.818 531.5,879.5C 525.833,879.5 520.167,879.5 514.5,879.5C 514.5,830.167 514.5,780.833 514.5,731.5 Z"/></g>
<g><path style="opacity:0.984" fill="#1568b2" d="M 457.5,929.5 C 532.167,929.5 606.833,929.5 681.5,929.5C 681.5,1004.17 681.5,1078.83 681.5,1153.5C 606.833,1153.5 532.167,1153.5 457.5,1153.5C 457.5,1078.83 457.5,1004.17 457.5,929.5 Z"/></g>
<g><path style="opacity:0.987" fill="#1568b2" d="M 221.5,930.5 C 296.167,930.5 370.833,930.5 445.5,930.5C 445.5,1004.83 445.5,1079.17 445.5,1153.5C 370.833,1153.5 296.167,1153.5 221.5,1153.5C 221.5,1079.17 221.5,1004.83 221.5,930.5 Z"/></g>
<g><path style="opacity:1" fill="#fdfdfe" d="M 303.5,965.5 C 324.183,963.852 344.183,966.686 363.5,974C 388.238,987.292 400.238,1008.13 399.5,1036.5C 399.853,1057.94 393.353,1076.94 380,1093.5C 363.883,1107.44 345.049,1114.94 323.5,1116C 308.108,1116.81 292.775,1116.31 277.5,1114.5C 277.5,1065.83 277.5,1017.17 277.5,968.5C 286.309,967.494 294.976,966.494 303.5,965.5 Z"/></g>
<g><path style="opacity:1" fill="#fdfefe" d="M 549.5,1056.5 C 549.44,1055.96 549.107,1055.62 548.5,1055.5C 547.5,1075.16 547.167,1094.82 547.5,1114.5C 541.5,1114.5 535.5,1114.5 529.5,1114.5C 529.5,1065.83 529.5,1017.17 529.5,968.5C 545.787,966.689 562.12,966.189 578.5,967C 611.878,972.251 625.045,991.418 618,1024.5C 611.302,1041.62 598.802,1051.79 580.5,1055C 570.223,1056.37 559.889,1056.87 549.5,1056.5 Z"/></g>
<g><path style="opacity:1" fill="#1968b2" d="M 304.5,980.5 C 364.388,977.217 388.221,1004.88 376,1063.5C 367.652,1086.46 351.152,1098.96 326.5,1101C 316.466,1101.76 306.466,1101.59 296.5,1100.5C 296.167,1061.16 296.5,1021.83 297.5,982.5C 299.982,981.933 302.316,981.266 304.5,980.5 Z"/></g>
<g><path style="opacity:1" fill="#1c69b2" d="M 553.5,981.5 C 565.213,980.482 576.547,981.982 587.5,986C 598.788,993.515 603.288,1004.01 601,1017.5C 597.424,1030.74 588.924,1038.91 575.5,1042C 566.452,1042.81 557.452,1042.64 548.5,1041.5C 547.334,1022.18 547.167,1002.84 548,983.5C 549.948,982.891 551.782,982.224 553.5,981.5 Z"/></g>
<g><path style="opacity:1" fill="#5981c1" d="M 549.5,1056.5 C 548.833,1076.17 548.167,1095.83 547.5,1115.5C 547.5,1115.17 547.5,1114.83 547.5,1114.5C 547.167,1094.82 547.5,1075.16 548.5,1055.5C 549.107,1055.62 549.44,1055.96 549.5,1056.5 Z"/></g>
<g><path style="opacity:1" fill="#a7b7dd" d="M 529.5,968.5 C 529.5,1017.17 529.5,1065.83 529.5,1114.5C 535.5,1114.5 541.5,1114.5 547.5,1114.5C 547.5,1114.83 547.5,1115.17 547.5,1115.5C 541.167,1115.5 534.833,1115.5 528.5,1115.5C 528.168,1066.33 528.501,1017.33 529.5,968.5 Z"/></g>
</svg>
